<?xml version="1.0" standalone="no"?>
<!DOCTYPE svg PUBLIC "-//W3C//DTD SVG 20010904//EN"
 "http://www.w3.org/TR/2001/REC-SVG-20010904/DTD/svg10.dtd">
<svg version="1.0" xmlns="http://www.w3.org/2000/svg"
 width="300.000000pt" height="300.000000pt" viewBox="0 0 300.000000 300.000000"
 preserveAspectRatio="xMidYMid meet">
<metadata>
Created by potrace 1.14, written by Peter Selinger 2001-2017
</metadata>
<g transform="translate(0.000000,300.000000) scale(0.100000,-0.100000)"
fill="#000000" stroke="none">
<path d="M2087 2921 c-96 -86 -158 -127 -417 -273 -355 -201 -560 -310 -810
-432 -193 -93 -440 -203 -496 -220 -29 -9 -69 -55 -83 -95 -31 -93 -4 -161
142 -354 276 -367 473 -715 621 -1097 129 -333 183 -399 327 -400 76 0 146 24
245 85 118 71 330 222 381 271 39 36 43 45 43 87 0 44 -2 48 -53 85 -131 97
-223 227 -263 371 -23 82 -14 99 88 165 165 107 371 200 528 241 127 33 160
62 160 145 0 62 -129 352 -217 487 -52 81 -115 77 -229 -15 -133 -106 -296
-202 -512 -302 -129 -59 -175 -66 -203 -31 -23 28 -24 72 -5 110 23 44 3 33
696 394 162 84 228 107 309 107 159 0 198 59 147 215 -54 160 -209 455 -259
490 -41 29 -82 19 -140 -34z m146 -183 c89 -151 157 -303 157 -353 0 -24 -2
-25 -72 -25 -40 0 -91 -5 -113 -11 -40 -11 -181 -80 -390 -189 -532 -279 -548
-289 -587 -343 -35 -49 -31 -133 9 -212 60 -116 108 -135 233 -90 179 64 533
259 682 377 l38 29 20 -33 c30 -48 149 -293 165 -339 13 -37 13 -40 -8 -53
-12 -7 -67 -28 -122 -46 -192 -63 -426 -180 -561 -280 -93 -69 -105 -137 -50
-279 76 -196 162 -325 254 -382 17 -12 32 -24 32 -28 0 -15 -479 -323 -497
-319 -15 3 -18 15 -19 83 -1 54 -8 101 -23 143 -47 137 -301 619 -504 957
-163 271 -245 392 -324 475 -36 39 -64 72 -62 74 2 1 164 84 359 183 331 167
904 478 1136 615 55 33 120 77 145 98 24 22 45 39 46 40 0 0 26 -42 56 -92z"/>
</g>
</svg>
